# xmcd
#
# Track frame offsets:
#	150
#	12437
#	26372
#	39580
#	53810
#	66475
#	81002
#	94770
#	107205
#	120202
#	135335
#	148587
#
# Disc length: 2159 seconds
#
# Revision: 1
# Processed by: cddbd v1.4PL0 Copyright (c) Steve Scherf et al.
# Submitted via: audiograbber 1.81.02
#
DISCID=98086d0c
DTITLE=Los Mier - Te Amare
DYEAR=1997
DGENRE=Latin
TTITLE0=Ruego De Amor
TTITLE1=Vuelve Te Amo
TTITLE2=Te Amare
TTITLE3=Siempre Estoy Pensando En Ti
TTITLE4=Amor De Paso
TTITLE5=El Que Te Quiso Soy Yo
TTITLE6=Pasito X
TTITLE7=Seque Nunca
TTITLE8=Hablale
TTITLE9=Mi Sentir Por Ti
TTITLE10=Tepito La Pancha Y Tequila
TTITLE11=No Se Estar Sin Ti
EXTD=
EXTT0=
EXTT1=
EXTT2=
EXTT3=
EXTT4=
EXTT5=
EXTT6=
EXTT7=
EXTT8=
EXTT9=
EXTT10=
EXTT11=
PLAYORDER=
